<svg xmlns="http://www.w3.org/2000/svg" viewBox="0 0 50 50">
  <path
    d="M 12 9 C 6.296875 9 0.882813 10.976563 0.65625 11.0625 C 0.265625 11.207031 0 11.582031 0 12 L 0 13.5 C 0 13.878906 0.222656 14.238281 0.5625 14.40625 L 1 14.625 C 1.230469 21.761719 5.457031 26 12.40625 26 C 18.835938 26 23 21.683594 23 15 L 23 12.53125 C 23.402344 12.304688 24.117188 12 25 12 C 25.878906 12 26.59375 12.304688 27 12.53125 L 27 15 C 27 21.683594 31.164063 26 37.59375 26 C 44.542969 26 48.769531 21.761719 49 14.625 L 49.4375 14.40625 C 49.777344 14.234375 50 13.878906 50 13.5 L 50 12 C 50 11.582031 49.734375 11.207031 49.34375 11.0625 C 49.117188 10.976563 43.703125 9 38 9 C 33.316406 9 29.457031 10.335938 28.09375 10.875 C 27.480469 10.511719 26.390625 10 25 10 C 23.609375 10 22.488281 10.511719 21.875 10.875 C 20.515625 10.335938 16.683594 9 12 9 Z M 22 28 C 19.503906 28 18.476563 30.003906 17.5625 31.78125 C 16.535156 33.777344 15.769531 35 14 35 C 12.738281 35 11.863281 34.6875 11.375 34.0625 C 10.546875 33.003906 10.933594 31.292969 10.9375 31.28125 C 11.042969 30.875 10.875 30.425781 10.53125 30.1875 C 10.183594 29.949219 9.75 29.976563 9.40625 30.21875 C 9.308594 30.289063 7 31.929688 7 34.5 C 7 36.914063 8.789063 41 15.53125 41 C 19.675781 41 23.054688 39.242188 25 37.5 C 26.945313 39.242188 30.324219 41 34.46875 41 C 41.210938 41 43 36.914063 43 34.5 C 43 31.929688 40.691406 30.285156 40.59375 30.21875 C 40.25 29.976563 39.816406 29.949219 39.46875 30.1875 C 39.125 30.425781 38.957031 30.875 39.0625 31.28125 C 39.066406 31.296875 39.476563 33.003906 38.65625 34.0625 C 38.167969 34.691406 37.265625 35 36 35 C 34.230469 35 33.464844 33.777344 32.4375 31.78125 C 31.523438 30.003906 30.492188 28 28 28 C 26.777344 28 25.652344 28.492188 25 28.84375 C 24.347656 28.496094 23.207031 28 22 28 Z">
  </path>
</svg>
